<svg width="128" height="128" viewBox="0 0 128 128" xmlns="http://www.w3.org/2000/svg">
  <!-- Background circle -->
  <circle cx="64" cy="64" r="60" fill="#1a365d" stroke="#2d3748" stroke-width="2"/>
  
  <!-- 3D J Letter -->
  <g transform="translate(64, 64)">
    <!-- Main J body (front face) -->
    <path d="M-20,-35 L-20,25 L-5,25 L-5,15 L-10,15 L-10,5 L5,5 L5,15 L0,15 L0,25 L15,25 L15,-35 Z" fill="white"/>
    
    <!-- Top face (3D effect) -->
    <path d="M-20,-35 L-20,-30 L-5,-30 L-5,-25 L5,-25 L5,-30 L15,-30 L15,-35 Z" fill="#e2e8f0"/>
    
    <!-- Right side face (3D effect) -->
    <path d="M15,-35 L20,-30 L20,20 L15,25 Z" fill="#cbd5e0"/>
    
    <!-- Inner curve right side -->
    <path d="M5,5 L10,0 L10,10 L5,15 Z" fill="#cbd5e0"/>
    
    <!-- Bottom curve right side -->
    <path d="M0,15 L5,10 L5,20 L0,25 Z" fill="#cbd5e0"/>
  </g>
</svg>
